<svg width="268" height="268" viewBox="0 0 268 268" fill="none" xmlns="http://www.w3.org/2000/svg">
<rect y="144" width="124" height="124" rx="12" fill="#E7DDFF" fill-opacity="0.8"/>
<path d="M56.5 204.167C57.9504 204.167 59.3682 203.737 60.5742 202.931C61.7801 202.125 62.7201 200.98 63.2751 199.64C63.8302 198.3 63.9754 196.825 63.6924 195.403C63.4095 193.98 62.711 192.673 61.6854 191.648C60.6599 190.622 59.3532 189.924 57.9307 189.641C56.5081 189.358 55.0336 189.503 53.6937 190.058C52.3537 190.613 51.2084 191.553 50.4026 192.759C49.5968 193.965 49.1667 195.383 49.1667 196.833C49.1667 198.778 49.9393 200.644 51.3145 202.019C52.6898 203.394 54.5551 204.167 56.5 204.167ZM56.5 193.167C57.2252 193.167 57.9341 193.382 58.5371 193.785C59.1401 194.188 59.61 194.76 59.8876 195.43C60.1651 196.1 60.2377 196.837 60.0962 197.549C59.9547 198.26 59.6055 198.913 59.0927 199.426C58.5799 199.939 57.9266 200.288 57.2153 200.43C56.5041 200.571 55.7668 200.498 55.0968 200.221C54.4268 199.943 53.8542 199.473 53.4513 198.87C53.0484 198.267 52.8333 197.559 52.8333 196.833C52.8333 195.861 53.2196 194.928 53.9073 194.241C54.5949 193.553 55.5275 193.167 56.5 193.167ZM71.1667 207.833C72.2545 207.833 73.3178 207.511 74.2223 206.906C75.1268 206.302 75.8317 205.443 76.248 204.438C76.6643 203.433 76.7732 202.327 76.561 201.26C76.3488 200.193 75.8249 199.213 75.0558 198.444C74.2866 197.675 73.3066 197.151 72.2397 196.939C71.1728 196.727 70.0669 196.836 69.0619 197.252C68.0569 197.668 67.1979 198.373 66.5936 199.278C65.9892 200.182 65.6667 201.246 65.6667 202.333C65.6667 203.792 66.2461 205.191 67.2776 206.222C68.309 207.254 69.708 207.833 71.1667 207.833ZM71.1667 200.5C71.5293 200.5 71.8837 200.608 72.1852 200.809C72.4867 201.01 72.7217 201.297 72.8604 201.632C72.9992 201.967 73.0355 202.335 72.9648 202.691C72.894 203.047 72.7194 203.373 72.463 203.63C72.2066 203.886 71.88 204.061 71.5243 204.131C71.1687 204.202 70.8001 204.166 70.4651 204.027C70.1301 203.888 69.8438 203.653 69.6423 203.352C69.4409 203.05 69.3333 202.696 69.3333 202.333C69.3333 201.847 69.5265 201.381 69.8703 201.037C70.2141 200.693 70.6804 200.5 71.1667 200.5ZM71.1667 209.667C69.135 209.669 67.1617 210.346 65.5567 211.592C63.7609 209.803 61.4758 208.586 58.9893 208.094C56.5029 207.603 53.9266 207.858 51.5852 208.829C49.2439 209.8 47.2424 211.442 45.8332 213.549C44.424 215.655 43.6701 218.132 43.6667 220.667C43.6667 221.153 43.8598 221.619 44.2036 221.963C44.5475 222.307 45.0138 222.5 45.5 222.5C45.9862 222.5 46.4525 222.307 46.7964 221.963C47.1402 221.619 47.3333 221.153 47.3333 220.667C47.3333 218.236 48.2991 215.904 50.0182 214.185C51.7373 212.466 54.0688 211.5 56.5 211.5C58.9311 211.5 61.2627 212.466 62.9818 214.185C64.7009 215.904 65.6667 218.236 65.6667 220.667C65.6667 221.153 65.8598 221.619 66.2036 221.963C66.5475 222.307 67.0138 222.5 67.5 222.5C67.9862 222.5 68.4525 222.307 68.7964 221.963C69.1402 221.619 69.3333 221.153 69.3333 220.667C69.3377 218.519 68.7951 216.405 67.7567 214.525C68.5669 213.885 69.5409 213.486 70.5674 213.373C71.5939 213.261 72.6313 213.439 73.5609 213.889C74.4906 214.338 75.2749 215.04 75.8241 215.915C76.3734 216.789 76.6654 217.801 76.6667 218.833C76.6667 219.32 76.8598 219.786 77.2036 220.13C77.5475 220.474 78.0138 220.667 78.5 220.667C78.9862 220.667 79.4525 220.474 79.7964 220.13C80.1402 219.786 80.3333 219.32 80.3333 218.833C80.3333 216.402 79.3676 214.071 77.6485 212.352C75.9294 210.632 73.5978 209.667 71.1667 209.667Z" fill="#8B5CF6"/>
<rect width="124" height="124" rx="12" fill="#FDECE0"/>
<path d="M63.4428 50.6462C63.6941 50.7503 63.9089 50.9265 64.06 51.1527C64.2111 51.3788 64.2917 51.6447 64.2917 51.9167V59.25C64.2917 59.6147 64.1468 59.9644 63.8889 60.2223C63.6311 60.4802 63.2813 60.625 62.9167 60.625C62.552 60.625 62.2023 60.4802 61.9444 60.2223C61.6865 59.9644 61.5417 59.6147 61.5417 59.25V55.235L61.1383 55.6384C61.0125 55.7734 60.8607 55.8818 60.692 55.957C60.5233 56.0321 60.3412 56.0725 60.1566 56.0758C59.972 56.079 59.7886 56.0451 59.6174 55.9759C59.4462 55.9068 59.2907 55.8038 59.1601 55.6733C59.0295 55.5427 58.9266 55.3872 58.8574 55.216C58.7883 55.0447 58.7543 54.8614 58.7576 54.6767C58.7608 54.4921 58.8013 54.31 58.8764 54.1414C58.9516 53.9727 59.0599 53.8209 59.195 53.695L61.945 50.945C62.1372 50.7527 62.382 50.6217 62.6486 50.5685C62.9152 50.5153 63.1916 50.5423 63.4428 50.6462Z" fill="#F97316"/>
<path fill-rule="evenodd" clip-rule="evenodd" d="M53.7463 42.9462C56.4744 42.4979 59.2353 42.279 62 42.2917C65.3513 42.2917 68.1215 42.5868 70.2537 42.9462L70.5012 42.9883C72.3528 43.2982 73.8928 43.5567 75.0955 45.038C75.8673 45.9895 76.1167 47.018 76.1735 48.1638L77.0755 48.4645C77.9243 48.7468 78.6705 48.9962 79.259 49.2712C79.897 49.5682 80.4818 49.9495 80.9292 50.571C81.3765 51.1925 81.5543 51.8672 81.635 52.5657C81.7083 53.2128 81.7083 53.9957 81.7083 54.894V55.158C81.7083 55.895 81.7083 56.5458 81.6533 57.0903C81.5947 57.6788 81.4645 58.2527 81.14 58.8063C80.8118 59.3618 80.3737 59.7542 79.8878 60.0915C79.4387 60.4032 78.8703 60.7203 78.225 61.0778L73.385 63.7673C72.395 65.7125 71.0383 67.4468 69.1683 68.699C67.5642 69.7752 65.6447 70.4572 63.375 70.6515V74.375H65.9967C66.7384 74.375 67.4572 74.632 68.0308 75.1023C68.6044 75.5726 68.9973 76.2271 69.1427 76.9545L69.5442 78.9583H73C73.3647 78.9583 73.7144 79.1032 73.9723 79.3611C74.2301 79.6189 74.375 79.9687 74.375 80.3333C74.375 80.698 74.2301 81.0477 73.9723 81.3056C73.7144 81.5635 73.3647 81.7083 73 81.7083H51C50.6353 81.7083 50.2856 81.5635 50.0277 81.3056C49.7699 81.0477 49.625 80.698 49.625 80.3333C49.625 79.9687 49.7699 79.6189 50.0277 79.3611C50.2856 79.1032 50.6353 78.9583 51 78.9583H54.4558L54.8573 76.9545C55.0027 76.2271 55.3956 75.5726 55.9692 75.1023C56.5428 74.632 57.2616 74.375 58.0033 74.375H60.625V70.6515C58.3553 70.4572 56.4358 69.7752 54.8317 68.7008C52.9635 67.4468 51.605 65.7125 50.615 63.7673L45.775 61.0778C45.2053 60.7758 44.6504 60.4467 44.1122 60.0915C43.6044 59.7629 43.1771 59.3243 42.8618 58.8082C42.5634 58.2815 42.3873 57.6943 42.3467 57.0903C42.2917 56.5458 42.2917 55.895 42.2917 55.158V54.8922C42.2917 53.9975 42.2917 53.2128 42.365 52.5657C42.4457 51.8672 42.6217 51.1907 43.0708 50.571C43.5182 49.9495 44.103 49.5682 44.7392 49.2693C45.3313 48.9943 46.0757 48.7468 46.9245 48.4645L47.8265 48.1638C47.8833 47.0162 48.1327 45.9895 48.9045 45.038C50.109 43.5548 51.6472 43.2963 53.5007 42.9883L53.7463 42.9462ZM57.2608 78.9583H66.7392L66.4458 77.4935C66.4251 77.3896 66.369 77.2962 66.2871 77.229C66.2052 77.1618 66.1026 77.1251 65.9967 77.125H58.0033C57.8974 77.1251 57.7948 77.1618 57.7129 77.229C57.631 77.2962 57.5749 77.3896 57.5542 77.4935L57.2608 78.9583ZM47.887 51.0422C48.019 53.8288 48.3325 56.9088 49.1172 59.7872L47.1628 58.7037C46.4497 58.3058 46.0023 58.0565 45.6797 57.8328C45.3827 57.6257 45.2855 57.5028 45.2323 57.4112C45.1773 57.3195 45.1187 57.1765 45.082 56.8172C45.0441 56.2448 45.0306 55.671 45.0417 55.0975V54.9637C45.0417 53.9755 45.0435 53.3503 45.0967 52.8773C45.148 52.441 45.2287 52.2778 45.302 52.1788C45.3735 52.078 45.5018 51.9497 45.8997 51.7645C46.3323 51.5628 46.9263 51.363 47.8613 51.0495L47.887 51.0422ZM74.8828 59.7872L76.8372 58.7037C77.5503 58.3058 77.9977 58.0565 78.3203 57.8328C78.6173 57.6257 78.7145 57.5028 78.7677 57.4112C78.8227 57.3195 78.8813 57.1765 78.918 56.8172C78.9565 56.4248 78.9583 55.9133 78.9583 55.0975V54.9637C78.9583 53.9755 78.9565 53.3503 78.9033 52.8773C78.852 52.441 78.7713 52.2778 78.698 52.1788C78.6265 52.078 78.4982 51.9497 78.1003 51.7645C77.6677 51.5628 77.0737 51.363 76.1387 51.0495L76.113 51.0422C75.9828 53.8288 75.6657 56.9088 74.8828 59.7872ZM62 45.0417C58.81 45.0417 56.1938 45.3222 54.2047 45.6577C51.9918 46.0317 51.528 46.171 51.0403 46.7723C50.56 47.3627 50.5142 47.9237 50.6113 50.4078C50.7763 54.5475 51.3227 59.0172 53.013 62.4162C53.849 64.0918 54.9417 65.4632 56.3643 66.4165C57.776 67.3643 59.6002 67.9583 62 67.9583C64.4017 67.9583 66.224 67.3643 67.6375 66.4165C69.0602 65.4632 70.151 64.0918 70.9852 62.4143C72.6773 59.0172 73.2237 54.5493 73.3868 50.406C73.4877 47.9237 73.4418 47.3627 72.9615 46.7723C72.4738 46.171 72.0082 46.0317 69.7953 45.6577C67.2185 45.2358 64.6111 45.0298 62 45.0417Z" fill="#F97316"/>
<rect x="144" y="73" width="124" height="124" rx="12" fill="#A0E2FF" fill-opacity="0.53"/>
<path d="M188.717 128.516L204.592 120.579C204.745 120.503 204.913 120.463 205.083 120.463C205.254 120.463 205.422 120.503 205.575 120.579L221.45 128.517C221.632 128.609 221.786 128.749 221.893 128.923C222 129.097 222.057 129.297 222.057 129.501C222.057 129.705 222 129.905 221.893 130.079C221.786 130.253 221.632 130.393 221.45 130.485L205.575 138.421C205.422 138.497 205.254 138.537 205.083 138.537C204.913 138.537 204.745 138.497 204.592 138.421L188.717 130.483C188.535 130.391 188.381 130.251 188.274 130.077C188.166 129.903 188.11 129.703 188.11 129.499C188.11 129.295 188.166 129.095 188.274 128.921C188.381 128.747 188.535 128.607 188.717 128.516Z" stroke="#0DA5E9" stroke-width="3" stroke-linecap="round" stroke-linejoin="round"/>
<path d="M225.25 136.833V130.417L221.583 128.583M192.25 132.25V142.172C192.25 142.866 192.447 143.545 192.817 144.132C193.188 144.718 193.717 145.187 194.344 145.485L203.51 149.837C204.002 150.071 204.539 150.192 205.083 150.192C205.627 150.192 206.165 150.071 206.656 149.837L215.823 145.485C216.45 145.187 216.979 144.718 217.35 144.132C217.72 143.545 217.917 142.866 217.917 142.172V132.25" stroke="#0DA5E9" stroke-width="3" stroke-linecap="round" stroke-linejoin="round"/>
</svg>
