<svg width="580" height="550" viewBox="0 0 580 550" fill="none" xmlns="http://www.w3.org/2000/svg">
<g clip-path="url(#clip0_35_117)">
<rect width="580" height="550" rx="16" fill="#F9F9F9"/>
<circle cx="290" cy="275" r="239.5" stroke="#E4E4E4"/>
<circle cx="290" cy="275" r="189.5" stroke="#E4E4E4"/>
<circle cx="290" cy="275" r="139.5" stroke="#E4E4E4"/>
<rect x="143" y="145" width="281" height="237" rx="12" fill="white"/>
<g filter="url(#filter0_d_35_117)">
<rect x="39" y="124.881" width="56" height="56" rx="8" transform="rotate(-5 39 124.881)" fill="white"/>
<g clip-path="url(#clip1_35_117)">
<path d="M75.1509 166.011L66.6121 166.759C58.8845 167.435 55.2795 164.257 54.5696 156.143L53.7852 147.177C53.0753 139.063 56.0737 135.307 63.8013 134.631L70.917 134.009C71.5005 133.958 72.0288 134.423 72.0824 135.036C72.136 135.649 71.6966 136.199 71.1131 136.25L63.9974 136.873C57.4368 137.447 55.3172 140.102 55.9199 146.99L56.7043 155.956C57.307 162.845 59.8554 165.091 66.416 164.517L74.9548 163.77C81.5155 163.196 83.635 160.541 83.0323 153.653L82.3787 146.181C82.3251 145.568 82.7645 145.018 83.348 144.967C83.9314 144.916 84.4598 145.382 84.5134 145.994L85.167 153.466C85.8769 161.58 82.8785 165.335 75.1509 166.011Z" fill="#606060"/>
<path d="M83.5441 147.208L77.8515 147.706C72.9844 148.132 70.9178 146.31 70.4706 141.2L69.9477 135.223C69.9085 134.774 70.128 134.334 70.5121 134.134C70.8949 133.92 71.3595 133.985 71.7 134.271L84.131 145.23C84.4573 145.517 84.6001 146.002 84.4659 146.435C84.3317 146.868 83.971 147.171 83.5441 147.208ZM72.319 137.741L72.6053 141.013C72.9426 144.868 73.9837 145.786 77.6554 145.465L80.7721 145.192L72.319 137.741Z" fill="#606060"/>
</g>
<rect x="48.9053" y="161.796" width="24" height="14" rx="2" transform="rotate(-8 48.9053 161.796)" fill="#FB3748"/>
<path d="M54.9711 171.041L54.1917 165.496L56.2119 165.212C56.7083 165.142 57.128 165.159 57.471 165.261C57.8132 165.359 58.0794 165.529 58.2697 165.771C58.4653 166.013 58.5883 166.313 58.6387 166.672C58.6892 167.032 58.6538 167.354 58.5325 167.641C58.4164 167.926 58.2077 168.166 57.9063 168.359C57.6042 168.547 57.2049 168.676 56.7084 168.745L55.6389 168.896L55.9217 170.908L54.9711 171.041ZM55.5232 168.072L56.5134 167.933C57.0152 167.862 57.3477 167.737 57.511 167.558C57.6736 167.374 57.7326 167.123 57.6881 166.806C57.6443 166.494 57.5188 166.272 57.3117 166.14C57.1046 166.008 56.7502 165.977 56.2484 166.047L55.2582 166.186L55.5232 168.072ZM60.2009 170.306L59.4216 164.761L61.2041 164.51C61.7639 164.432 62.256 164.465 62.6803 164.61C63.1038 164.75 63.4465 165.003 63.7081 165.37C63.9743 165.731 64.1486 166.205 64.231 166.791L64.2532 166.95C64.3364 167.541 64.2982 168.056 64.1389 168.493C63.9795 168.93 63.7086 169.283 63.3264 169.552C62.9487 169.815 62.4746 169.987 61.9042 170.067L60.2009 170.306ZM61.0358 169.349L61.7092 169.254C62.0736 169.203 62.382 169.098 62.6342 168.938C62.8911 168.773 63.0737 168.54 63.1823 168.239C63.2961 167.938 63.3204 167.555 63.255 167.09L63.2328 166.932C63.1719 166.499 63.046 166.158 62.8549 165.91C62.6639 165.662 62.4279 165.496 62.1467 165.412C61.8701 165.322 61.5681 165.299 61.2406 165.345L60.488 165.451L61.0358 169.349ZM65.7867 169.521L65.0073 163.976L68.6911 163.458L68.8069 164.282L66.0738 164.666L66.2953 166.243L68.7908 165.892L68.9066 166.716L66.4111 167.067L66.7373 169.388L65.7867 169.521Z" fill="white"/>
</g>
<g filter="url(#filter1_d_35_117)">
<rect x="480" y="419.881" width="56" height="56" rx="8" transform="rotate(-5 480 419.881)" fill="white"/>
<g clip-path="url(#clip2_35_117)">
<path d="M516.151 461.011L507.612 461.759C499.884 462.435 496.28 459.257 495.57 451.143L494.785 442.177C494.075 434.063 497.074 430.307 504.801 429.631L511.917 429.009C512.5 428.958 513.029 429.423 513.082 430.036C513.136 430.649 512.697 431.199 512.113 431.25L504.997 431.873C498.437 432.447 496.317 435.102 496.92 441.99L497.704 450.956C498.307 457.845 500.855 460.091 507.416 459.517L515.955 458.77C522.515 458.196 524.635 455.541 524.032 448.653L523.379 441.181C523.325 440.568 523.764 440.018 524.348 439.967C524.931 439.916 525.46 440.382 525.513 440.994L526.167 448.466C526.877 456.58 523.879 460.335 516.151 461.011Z" fill="#606060"/>
<path d="M524.544 442.208L518.852 442.706C513.984 443.132 511.918 441.31 511.471 436.2L510.948 430.223C510.908 429.774 511.128 429.334 511.512 429.134C511.895 428.92 512.359 428.985 512.7 429.271L525.131 440.23C525.457 440.517 525.6 441.002 525.466 441.435C525.332 441.868 524.971 442.171 524.544 442.208ZM513.319 432.741L513.605 436.013C513.943 439.868 514.984 440.786 518.655 440.465L521.772 440.192L513.319 432.741Z" fill="#606060"/>
</g>
<rect x="489.905" y="456.796" width="24" height="14" rx="2" transform="rotate(-8 489.905 456.796)" fill="#FB3748"/>
<path d="M495.971 466.041L495.192 460.496L497.212 460.212C497.708 460.142 498.128 460.159 498.471 460.261C498.813 460.359 499.079 460.529 499.27 460.771C499.465 461.013 499.588 461.313 499.639 461.672C499.689 462.032 499.654 462.354 499.532 462.641C499.416 462.926 499.208 463.166 498.906 463.359C498.604 463.547 498.205 463.676 497.708 463.745L496.639 463.896L496.922 465.908L495.971 466.041ZM496.523 463.072L497.513 462.933C498.015 462.862 498.348 462.737 498.511 462.558C498.674 462.374 498.733 462.123 498.688 461.806C498.644 461.494 498.519 461.272 498.312 461.14C498.105 461.008 497.75 460.977 497.248 461.047L496.258 461.186L496.523 463.072ZM501.201 465.306L500.422 459.761L502.204 459.51C502.764 459.432 503.256 459.465 503.68 459.61C504.104 459.75 504.446 460.003 504.708 460.37C504.974 460.731 505.149 461.205 505.231 461.791L505.253 461.95C505.336 462.541 505.298 463.056 505.139 463.493C504.979 463.93 504.709 464.283 504.326 464.552C503.949 464.815 503.475 464.987 502.904 465.067L501.201 465.306ZM502.036 464.349L502.709 464.254C503.074 464.203 503.382 464.098 503.634 463.938C503.891 463.773 504.074 463.54 504.182 463.239C504.296 462.938 504.32 462.555 504.255 462.09L504.233 461.932C504.172 461.499 504.046 461.158 503.855 460.91C503.664 460.662 503.428 460.496 503.147 460.412C502.87 460.322 502.568 460.299 502.241 460.345L501.488 460.451L502.036 464.349ZM506.787 464.521L506.007 458.976L509.691 458.458L509.807 459.282L507.074 459.666L507.295 461.243L509.791 460.892L509.907 461.716L507.411 462.067L507.737 464.388L506.787 464.521Z" fill="white"/>
</g>
<g filter="url(#filter2_d_35_117)">
<rect x="261" y="64" width="56" height="56" rx="8" transform="rotate(-2 261 64)" fill="white"/>
<path d="M294.949 106.966L286.383 107.266C278.63 107.536 275.196 104.174 274.912 96.0341L274.598 87.0395C274.314 78.8995 277.505 75.306 285.257 75.0352L292.396 74.786C292.981 74.7655 293.484 75.2583 293.506 75.8729C293.527 76.4875 293.059 77.0141 292.474 77.0346L285.336 77.2839C278.754 77.5137 276.498 80.054 276.74 86.9648L277.054 95.9593C277.295 102.87 279.722 105.247 286.304 105.017L294.87 104.718C301.452 104.488 303.708 101.948 303.466 95.0369L303.204 87.5415C303.183 86.9269 303.651 86.4002 304.236 86.3798C304.821 86.3594 305.325 86.8521 305.346 87.4667L305.608 94.9622C305.892 103.102 302.701 106.696 294.949 106.966Z" fill="#606060"/>
<path d="M304.314 88.6286L298.604 88.828C293.721 88.9985 291.752 87.071 291.573 81.9441L291.364 75.9478C291.348 75.4981 291.591 75.0693 291.985 74.8905C292.378 74.6966 292.839 74.7856 293.164 75.0895L305.004 86.6833C305.315 86.9876 305.432 87.4789 305.276 87.9046C305.119 88.3303 304.743 88.6136 304.314 88.6286ZM293.6 78.5863L293.715 81.8693C293.85 85.737 294.842 86.708 298.525 86.5793L301.652 86.4702L293.6 78.5863Z" fill="#606060"/>
<rect x="268.963" y="101.487" width="26" height="14" rx="2" transform="rotate(-5 268.963 101.487)" fill="#0DA5E9"/>
<path d="M274.537 111.038L274.049 105.459L275.842 105.302C276.405 105.253 276.895 105.312 277.311 105.479C277.727 105.641 278.056 105.912 278.298 106.292C278.545 106.667 278.694 107.149 278.745 107.739L278.759 107.898C278.811 108.493 278.746 109.005 278.564 109.433C278.382 109.861 278.093 110.199 277.698 110.448C277.307 110.691 276.824 110.838 276.25 110.888L274.537 111.038ZM275.421 110.125L276.098 110.066C276.465 110.034 276.778 109.945 277.039 109.799C277.304 109.647 277.498 109.424 277.622 109.13C277.752 108.835 277.796 108.453 277.755 107.986L277.741 107.826C277.703 107.391 277.595 107.044 277.417 106.787C277.24 106.529 277.013 106.351 276.736 106.252C276.465 106.147 276.164 106.109 275.835 106.138L275.078 106.204L275.421 110.125ZM282.435 110.435C282.095 110.465 281.766 110.44 281.449 110.361C281.137 110.281 280.851 110.14 280.593 109.938C280.334 109.73 280.12 109.455 279.95 109.111C279.786 108.761 279.681 108.331 279.637 107.821L279.623 107.662C279.58 107.173 279.61 106.75 279.713 106.393C279.82 106.03 279.983 105.727 280.203 105.483C280.423 105.239 280.679 105.053 280.973 104.926C281.272 104.792 281.592 104.711 281.932 104.681C282.272 104.651 282.598 104.676 282.91 104.756C283.227 104.83 283.515 104.968 283.773 105.171C284.032 105.373 284.243 105.643 284.407 105.982C284.575 106.316 284.68 106.727 284.723 107.216L284.737 107.375C284.782 107.885 284.751 108.327 284.644 108.7C284.543 109.068 284.382 109.376 284.163 109.626C283.944 109.87 283.684 110.058 283.386 110.191C283.092 110.324 282.775 110.405 282.435 110.435ZM282.361 109.59C282.627 109.567 282.871 109.482 283.094 109.334C283.316 109.186 283.489 108.962 283.613 108.662C283.736 108.357 283.776 107.957 283.733 107.463L283.719 107.303C283.678 106.836 283.571 106.47 283.398 106.207C283.225 105.939 283.016 105.753 282.772 105.652C282.527 105.545 282.271 105.503 282.006 105.526C281.74 105.549 281.493 105.635 281.265 105.784C281.042 105.926 280.869 106.145 280.744 106.439C280.625 106.728 280.586 107.106 280.627 107.574L280.641 107.733C280.684 108.227 280.79 108.614 280.959 108.894C281.133 109.168 281.342 109.358 281.587 109.465C281.838 109.572 282.096 109.614 282.361 109.59ZM288.293 109.923C287.836 109.963 287.416 109.903 287.032 109.744C286.649 109.579 286.33 109.299 286.076 108.904C285.826 108.503 285.672 107.968 285.614 107.298L285.6 107.139C285.558 106.655 285.585 106.235 285.682 105.879C285.779 105.517 285.927 105.215 286.125 104.973C286.329 104.73 286.572 104.543 286.855 104.411C287.143 104.279 287.455 104.198 287.789 104.169C288.098 104.142 288.388 104.157 288.661 104.213C288.933 104.264 289.176 104.358 289.392 104.494C289.607 104.631 289.786 104.808 289.928 105.026C290.07 105.243 290.168 105.505 290.222 105.811L289.218 105.899C289.118 105.56 288.947 105.32 288.705 105.181C288.468 105.041 288.187 104.985 287.863 105.014C287.63 105.034 287.409 105.115 287.202 105.256C286.994 105.392 286.831 105.604 286.712 105.893C286.598 106.182 286.562 106.568 286.604 107.051L286.618 107.21C286.651 107.593 286.722 107.911 286.83 108.164C286.937 108.411 287.066 108.603 287.218 108.74C287.374 108.876 287.538 108.972 287.708 109.026C287.884 109.075 288.054 109.092 288.219 109.078C288.601 109.045 288.889 108.931 289.08 108.738C289.277 108.538 289.383 108.283 289.399 107.971L290.403 107.883C290.4 108.215 290.345 108.504 290.238 108.749C290.136 108.993 289.988 109.199 289.794 109.366C289.605 109.527 289.383 109.653 289.128 109.745C288.874 109.837 288.596 109.896 288.293 109.923Z" fill="white"/>
</g>
<g filter="url(#filter3_d_35_117)">
<rect x="261" y="460" width="56" height="56" rx="8" transform="rotate(-2 261 460)" fill="white"/>
<path d="M294.949 502.966L286.383 503.266C278.63 503.536 275.196 500.174 274.912 492.034L274.598 483.04C274.314 474.9 277.505 471.306 285.257 471.035L292.396 470.786C292.981 470.766 293.484 471.258 293.506 471.873C293.527 472.488 293.059 473.014 292.474 473.035L285.336 473.284C278.754 473.514 276.498 476.054 276.74 482.965L277.054 491.959C277.295 498.87 279.722 501.247 286.304 501.017L294.87 500.718C301.452 500.488 303.708 497.948 303.466 491.037L303.204 483.542C303.183 482.927 303.651 482.4 304.236 482.38C304.821 482.359 305.325 482.852 305.346 483.467L305.608 490.962C305.892 499.102 302.701 502.696 294.949 502.966Z" fill="#606060"/>
<path d="M304.314 484.629L298.604 484.828C293.721 484.998 291.752 483.071 291.573 477.944L291.364 471.948C291.348 471.498 291.591 471.069 291.985 470.89C292.378 470.697 292.839 470.786 293.164 471.089L305.004 482.683C305.315 482.988 305.432 483.479 305.276 483.905C305.119 484.33 304.743 484.614 304.314 484.629ZM293.6 474.586L293.715 477.869C293.85 481.737 294.842 482.708 298.525 482.579L301.652 482.47L293.6 474.586Z" fill="#606060"/>
<rect x="268.963" y="497.487" width="26" height="14" rx="2" transform="rotate(-5 268.963 497.487)" fill="#0DA5E9"/>
<path d="M274.537 507.038L274.049 501.459L275.842 501.302C276.405 501.253 276.895 501.312 277.311 501.479C277.727 501.641 278.056 501.912 278.298 502.292C278.545 502.667 278.694 503.149 278.745 503.739L278.759 503.898C278.811 504.493 278.746 505.005 278.564 505.433C278.382 505.861 278.093 506.199 277.698 506.448C277.307 506.691 276.824 506.838 276.25 506.888L274.537 507.038ZM275.421 506.125L276.098 506.066C276.465 506.034 276.778 505.945 277.039 505.799C277.304 505.647 277.498 505.424 277.622 505.13C277.752 504.835 277.796 504.453 277.755 503.986L277.741 503.826C277.703 503.391 277.595 503.044 277.417 502.787C277.24 502.529 277.013 502.351 276.736 502.252C276.465 502.147 276.164 502.109 275.835 502.138L275.078 502.204L275.421 506.125ZM282.435 506.435C282.095 506.465 281.766 506.44 281.449 506.361C281.137 506.281 280.851 506.14 280.593 505.938C280.334 505.73 280.12 505.455 279.95 505.111C279.786 504.761 279.681 504.331 279.637 503.821L279.623 503.662C279.58 503.173 279.61 502.75 279.713 502.393C279.82 502.03 279.983 501.727 280.203 501.483C280.423 501.239 280.679 501.053 280.973 500.926C281.272 500.792 281.592 500.711 281.932 500.681C282.272 500.651 282.598 500.676 282.91 500.756C283.227 500.83 283.515 500.968 283.773 501.171C284.032 501.373 284.243 501.643 284.407 501.982C284.575 502.316 284.68 502.727 284.723 503.216L284.737 503.375C284.782 503.885 284.751 504.327 284.644 504.7C284.543 505.068 284.382 505.376 284.163 505.626C283.944 505.87 283.684 506.058 283.386 506.191C283.092 506.324 282.775 506.405 282.435 506.435ZM282.361 505.59C282.627 505.567 282.871 505.482 283.094 505.334C283.316 505.186 283.489 504.962 283.613 504.662C283.736 504.357 283.776 503.957 283.733 503.463L283.719 503.303C283.678 502.836 283.571 502.47 283.398 502.207C283.225 501.939 283.016 501.753 282.772 501.652C282.527 501.545 282.271 501.503 282.006 501.526C281.74 501.549 281.493 501.635 281.265 501.784C281.042 501.926 280.869 502.145 280.744 502.439C280.625 502.728 280.586 503.106 280.627 503.574L280.641 503.733C280.684 504.227 280.79 504.614 280.959 504.894C281.133 505.168 281.342 505.358 281.587 505.465C281.838 505.572 282.096 505.614 282.361 505.59ZM288.293 505.923C287.836 505.963 287.416 505.903 287.032 505.744C286.649 505.579 286.33 505.299 286.076 504.904C285.826 504.503 285.672 503.968 285.614 503.298L285.6 503.139C285.558 502.655 285.585 502.235 285.682 501.879C285.779 501.517 285.927 501.215 286.125 500.973C286.329 500.73 286.572 500.543 286.855 500.411C287.143 500.279 287.455 500.198 287.789 500.169C288.098 500.142 288.388 500.157 288.661 500.213C288.933 500.264 289.176 500.358 289.392 500.494C289.607 500.631 289.786 500.808 289.928 501.026C290.07 501.243 290.168 501.505 290.222 501.811L289.218 501.899C289.118 501.56 288.947 501.32 288.705 501.181C288.468 501.041 288.187 500.985 287.863 501.014C287.63 501.034 287.409 501.115 287.202 501.256C286.994 501.392 286.831 501.604 286.712 501.893C286.598 502.182 286.562 502.568 286.604 503.051L286.618 503.21C286.651 503.593 286.722 503.911 286.83 504.164C286.937 504.411 287.066 504.603 287.218 504.74C287.374 504.876 287.538 504.972 287.708 505.026C287.884 505.075 288.054 505.092 288.219 505.078C288.601 505.045 288.889 504.931 289.08 504.738C289.277 504.538 289.383 504.283 289.399 503.971L290.403 503.883C290.4 504.215 290.345 504.504 290.238 504.749C290.136 504.993 289.988 505.199 289.794 505.366C289.605 505.527 289.383 505.653 289.128 505.745C288.874 505.837 288.596 505.896 288.293 505.923Z" fill="white"/>
</g>
<g filter="url(#filter4_d_35_117)">
<rect x="480" y="124.881" width="56" height="56" rx="8" transform="rotate(-5 480 124.881)" fill="white"/>
<g clip-path="url(#clip3_35_117)">
<path d="M516.151 166.011L507.612 166.759C499.884 167.435 496.28 164.257 495.57 156.143L494.785 147.177C494.075 139.063 497.074 135.307 504.801 134.631L511.917 134.009C512.5 133.958 513.029 134.423 513.082 135.036C513.136 135.649 512.697 136.199 512.113 136.25L504.997 136.873C498.437 137.447 496.317 140.102 496.92 146.99L497.704 155.956C498.307 162.845 500.855 165.091 507.416 164.517L515.955 163.77C522.515 163.196 524.635 160.541 524.032 153.653L523.379 146.181C523.325 145.568 523.764 145.018 524.348 144.967C524.931 144.916 525.46 145.382 525.513 145.994L526.167 153.466C526.877 161.58 523.879 165.335 516.151 166.011Z" fill="#606060"/>
<path d="M524.544 147.208L518.852 147.706C513.984 148.132 511.918 146.31 511.471 141.2L510.948 135.223C510.908 134.774 511.128 134.334 511.512 134.134C511.895 133.92 512.359 133.985 512.7 134.271L525.131 145.23C525.457 145.517 525.6 146.002 525.466 146.435C525.332 146.868 524.971 147.171 524.544 147.208ZM513.319 137.741L513.605 141.013C513.943 144.868 514.984 145.786 518.655 145.465L521.772 145.192L513.319 137.741Z" fill="#606060"/>
</g>
<rect x="489.905" y="161.796" width="24" height="14" rx="2" transform="rotate(-8 489.905 161.796)" fill="#FB9650"/>
<path d="M495.971 171.041L495.192 165.496L497.212 165.212C497.708 165.142 498.128 165.159 498.471 165.261C498.813 165.359 499.079 165.529 499.27 165.771C499.465 166.013 499.588 166.313 499.639 166.672C499.689 167.032 499.654 167.354 499.532 167.641C499.416 167.926 499.208 168.166 498.906 168.359C498.604 168.547 498.205 168.676 497.708 168.745L496.639 168.896L496.922 170.908L495.971 171.041ZM496.523 168.072L497.513 167.933C498.015 167.862 498.348 167.737 498.511 167.558C498.674 167.374 498.733 167.123 498.688 166.806C498.644 166.494 498.519 166.272 498.312 166.14C498.105 166.008 497.75 165.977 497.248 166.047L496.258 166.186L496.523 168.072ZM501.201 170.306L500.422 164.761L502.442 164.477C502.938 164.407 503.358 164.424 503.701 164.526C504.043 164.624 504.309 164.793 504.5 165.036C504.695 165.278 504.818 165.578 504.869 165.937C504.919 166.297 504.884 166.619 504.762 166.906C504.646 167.191 504.438 167.431 504.136 167.624C503.834 167.812 503.435 167.941 502.938 168.01L501.869 168.161L502.152 170.173L501.201 170.306ZM501.753 167.337L502.743 167.198C503.245 167.127 503.578 167.002 503.741 166.823C503.903 166.639 503.962 166.388 503.918 166.071C503.874 165.759 503.749 165.537 503.542 165.405C503.334 165.272 502.98 165.242 502.478 165.312L501.488 165.451L501.753 167.337ZM507.699 169.393L507.036 164.672L505.174 164.933L505.058 164.109L509.732 163.452L509.848 164.276L507.986 164.538L508.65 169.26L507.699 169.393Z" fill="white"/>
</g>
<g filter="url(#filter5_d_35_117)">
<rect x="39" y="419.881" width="56" height="56" rx="8" transform="rotate(-5 39 419.881)" fill="white"/>
<g clip-path="url(#clip4_35_117)">
<path d="M75.1509 461.011L66.6121 461.758C58.8845 462.434 55.2795 459.256 54.5696 451.142L53.7852 442.177C53.0753 434.063 56.0737 430.307 63.8013 429.631L70.917 429.008C71.5005 428.957 72.0288 429.423 72.0824 430.036C72.136 430.648 71.6966 431.199 71.1131 431.25L63.9974 431.872C57.4368 432.446 55.3172 435.101 55.9199 441.99L56.7043 450.956C57.307 457.844 59.8554 460.091 66.416 459.517L74.9548 458.77C81.5155 458.196 83.635 455.541 83.0323 448.652L82.3787 441.181C82.3251 440.568 82.7645 440.018 83.348 439.967C83.9314 439.916 84.4598 440.381 84.5134 440.994L85.167 448.466C85.8769 456.58 82.8785 460.335 75.1509 461.011Z" fill="#606060"/>
<path d="M83.5441 442.208L77.8515 442.706C72.9844 443.132 70.9178 441.31 70.4706 436.2L69.9477 430.223C69.9085 429.774 70.128 429.333 70.5121 429.134C70.8949 428.92 71.3595 428.985 71.7 429.271L84.131 440.229C84.4573 440.517 84.6001 441.002 84.4659 441.435C84.3317 441.868 83.971 442.171 83.5441 442.208ZM72.319 432.74L72.6053 436.013C72.9426 439.868 73.9837 440.786 77.6554 440.465L80.7721 440.192L72.319 432.74Z" fill="#606060"/>
</g>
<rect x="48.9053" y="456.795" width="24" height="14" rx="2" transform="rotate(-8 48.9053 456.795)" fill="#FB9650"/>
<path d="M54.9711 466.041L54.1917 460.496L56.2119 460.212C56.7083 460.142 57.128 460.158 57.471 460.261C57.8132 460.358 58.0794 460.528 58.2697 460.771C58.4653 461.013 58.5883 461.313 58.6387 461.672C58.6892 462.031 58.6538 462.354 58.5325 462.64C58.4164 462.926 58.2077 463.165 57.9063 463.359C57.6042 463.546 57.2049 463.675 56.7084 463.745L55.6389 463.895L55.9217 465.908L54.9711 466.041ZM55.5232 463.071L56.5134 462.932C57.0152 462.862 57.3477 462.737 57.511 462.558C57.6736 462.373 57.7326 462.123 57.6881 461.806C57.6443 461.494 57.5188 461.272 57.3117 461.14C57.1046 461.007 56.7502 460.976 56.2484 461.047L55.2582 461.186L55.5232 463.071ZM60.2009 465.306L59.4216 459.761L61.4417 459.477C61.9382 459.407 62.3579 459.423 62.7008 459.526C63.043 459.623 63.3093 459.793 63.4996 460.036C63.6951 460.278 63.8181 460.578 63.8686 460.937C63.9191 461.296 63.8836 461.619 63.7623 461.905C63.6463 462.191 63.4375 462.43 63.1362 462.624C62.834 462.811 62.4347 462.94 61.9383 463.01L60.8688 463.16L61.1516 465.173L60.2009 465.306ZM60.753 462.336L61.7433 462.197C62.245 462.127 62.5775 462.002 62.7409 461.823C62.9035 461.638 62.9625 461.388 62.9179 461.071C62.8741 460.759 62.7487 460.537 62.5416 460.405C62.3345 460.272 61.98 460.241 61.4783 460.312L60.488 460.451L60.753 462.336ZM66.6993 464.393L66.0357 459.671L64.174 459.933L64.0582 459.109L68.7323 458.452L68.8481 459.276L66.9864 459.538L67.6499 464.259L66.6993 464.393Z" fill="white"/>
</g>
<g filter="url(#filter6_d_35_117)">
<rect x="224" y="127" width="248" height="90" rx="12" fill="white"/>
<circle cx="234.658" cy="137.261" r="4" fill="#F23936"/>
<circle cx="246.658" cy="137.261" r="4" fill="#FABB18"/>
<circle cx="258.658" cy="137.261" r="4" fill="#45C646"/>
<rect x="230.658" y="152.043" width="39.9463" height="6.26087" rx="2" fill="#0258F8"/>
<rect x="230.658" y="170.826" width="226.362" height="6.26087" rx="2" fill="#EDEDED"/>
<rect x="230.658" y="183.348" width="226.362" height="6.26087" rx="2" fill="#EDEDED"/>
<rect x="230.658" y="195.87" width="226.362" height="6.26087" rx="2" fill="#EDEDED"/>
</g>
</g>
<defs>
<filter id="filter0_d_35_117" x="-21" y="64.0002" width="180.668" height="180.667" filterUnits="userSpaceOnUse" color-interpolation-filters="sRGB">
<feFlood flood-opacity="0" result="BackgroundImageFix"/>
<feColorMatrix in="SourceAlpha" type="matrix" values="0 0 0 0 0 0 0 0 0 0 0 0 0 0 0 0 0 0 127 0" result="hardAlpha"/>
<feOffset dy="4"/>
<feGaussianBlur stdDeviation="30"/>
<feComposite in2="hardAlpha" operator="out"/>
<feColorMatrix type="matrix" values="0 0 0 0 0.0156863 0 0 0 0 0.0235294 0 0 0 0 0.0588235 0 0 0 0.08 0"/>
<feBlend mode="normal" in2="BackgroundImageFix" result="effect1_dropShadow_35_117"/>
<feBlend mode="normal" in="SourceGraphic" in2="effect1_dropShadow_35_117" result="shape"/>
</filter>
<filter id="filter1_d_35_117" x="420" y="359" width="180.668" height="180.667" filterUnits="userSpaceOnUse" color-interpolation-filters="sRGB">
<feFlood flood-opacity="0" result="BackgroundImageFix"/>
<feColorMatrix in="SourceAlpha" type="matrix" values="0 0 0 0 0 0 0 0 0 0 0 0 0 0 0 0 0 0 127 0" result="hardAlpha"/>
<feOffset dy="4"/>
<feGaussianBlur stdDeviation="30"/>
<feComposite in2="hardAlpha" operator="out"/>
<feColorMatrix type="matrix" values="0 0 0 0 0.0156863 0 0 0 0 0.0235294 0 0 0 0 0.0588235 0 0 0 0.08 0"/>
<feBlend mode="normal" in2="BackgroundImageFix" result="effect1_dropShadow_35_117"/>
<feBlend mode="normal" in="SourceGraphic" in2="effect1_dropShadow_35_117" result="shape"/>
</filter>
<filter id="filter2_d_35_117" x="201" y="6.04565" width="177.92" height="177.92" filterUnits="userSpaceOnUse" color-interpolation-filters="sRGB">
<feFlood flood-opacity="0" result="BackgroundImageFix"/>
<feColorMatrix in="SourceAlpha" type="matrix" values="0 0 0 0 0 0 0 0 0 0 0 0 0 0 0 0 0 0 127 0" result="hardAlpha"/>
<feOffset dy="4"/>
<feGaussianBlur stdDeviation="30"/>
<feComposite in2="hardAlpha" operator="out"/>
<feColorMatrix type="matrix" values="0 0 0 0 0.0156863 0 0 0 0 0.0235294 0 0 0 0 0.0588235 0 0 0 0.08 0"/>
<feBlend mode="normal" in2="BackgroundImageFix" result="effect1_dropShadow_35_117"/>
<feBlend mode="normal" in="SourceGraphic" in2="effect1_dropShadow_35_117" result="shape"/>
</filter>
<filter id="filter3_d_35_117" x="201" y="402.046" width="177.92" height="177.92" filterUnits="userSpaceOnUse" color-interpolation-filters="sRGB">
<feFlood flood-opacity="0" result="BackgroundImageFix"/>
<feColorMatrix in="SourceAlpha" type="matrix" values="0 0 0 0 0 0 0 0 0 0 0 0 0 0 0 0 0 0 127 0" result="hardAlpha"/>
<feOffset dy="4"/>
<feGaussianBlur stdDeviation="30"/>
<feComposite in2="hardAlpha" operator="out"/>
<feColorMatrix type="matrix" values="0 0 0 0 0.0156863 0 0 0 0 0.0235294 0 0 0 0 0.0588235 0 0 0 0.08 0"/>
<feBlend mode="normal" in2="BackgroundImageFix" result="effect1_dropShadow_35_117"/>
<feBlend mode="normal" in="SourceGraphic" in2="effect1_dropShadow_35_117" result="shape"/>
</filter>
<filter id="filter4_d_35_117" x="420" y="64.0002" width="180.668" height="180.667" filterUnits="userSpaceOnUse" color-interpolation-filters="sRGB">
<feFlood flood-opacity="0" result="BackgroundImageFix"/>
<feColorMatrix in="SourceAlpha" type="matrix" values="0 0 0 0 0 0 0 0 0 0 0 0 0 0 0 0 0 0 127 0" result="hardAlpha"/>
<feOffset dy="4"/>
<feGaussianBlur stdDeviation="30"/>
<feComposite in2="hardAlpha" operator="out"/>
<feColorMatrix type="matrix" values="0 0 0 0 0.0156863 0 0 0 0 0.0235294 0 0 0 0 0.0588235 0 0 0 0.08 0"/>
<feBlend mode="normal" in2="BackgroundImageFix" result="effect1_dropShadow_35_117"/>
<feBlend mode="normal" in="SourceGraphic" in2="effect1_dropShadow_35_117" result="shape"/>
</filter>
<filter id="filter5_d_35_117" x="-21" y="359" width="180.668" height="180.667" filterUnits="userSpaceOnUse" color-interpolation-filters="sRGB">
<feFlood flood-opacity="0" result="BackgroundImageFix"/>
<feColorMatrix in="SourceAlpha" type="matrix" values="0 0 0 0 0 0 0 0 0 0 0 0 0 0 0 0 0 0 127 0" result="hardAlpha"/>
<feOffset dy="4"/>
<feGaussianBlur stdDeviation="30"/>
<feComposite in2="hardAlpha" operator="out"/>
<feColorMatrix type="matrix" values="0 0 0 0 0.0156863 0 0 0 0 0.0235294 0 0 0 0 0.0588235 0 0 0 0.08 0"/>
<feBlend mode="normal" in2="BackgroundImageFix" result="effect1_dropShadow_35_117"/>
<feBlend mode="normal" in="SourceGraphic" in2="effect1_dropShadow_35_117" result="shape"/>
</filter>
<filter id="filter6_d_35_117" x="164" y="71" width="368" height="210" filterUnits="userSpaceOnUse" color-interpolation-filters="sRGB">
<feFlood flood-opacity="0" result="BackgroundImageFix"/>
<feColorMatrix in="SourceAlpha" type="matrix" values="0 0 0 0 0 0 0 0 0 0 0 0 0 0 0 0 0 0 127 0" result="hardAlpha"/>
<feOffset dy="4"/>
<feGaussianBlur stdDeviation="30"/>
<feComposite in2="hardAlpha" operator="out"/>
<feColorMatrix type="matrix" values="0 0 0 0 0.0156863 0 0 0 0 0.0235294 0 0 0 0 0.0588235 0 0 0 0.05 0"/>
<feBlend mode="normal" in2="BackgroundImageFix" result="effect1_dropShadow_35_117"/>
<feBlend mode="normal" in="SourceGraphic" in2="effect1_dropShadow_35_117" result="shape"/>
</filter>
<clipPath id="clip0_35_117">
<rect width="580" height="550" rx="16" fill="white"/>
</clipPath>
<clipPath id="clip1_35_117">
<rect width="34.2857" height="36" fill="white" transform="translate(50.8297 133.884) rotate(-5)"/>
</clipPath>
<clipPath id="clip2_35_117">
<rect width="34.2857" height="36" fill="white" transform="translate(491.83 428.884) rotate(-5)"/>
</clipPath>
<clipPath id="clip3_35_117">
<rect width="34.2857" height="36" fill="white" transform="translate(491.83 133.884) rotate(-5)"/>
</clipPath>
<clipPath id="clip4_35_117">
<rect width="34.2857" height="36" fill="white" transform="translate(50.8297 428.884) rotate(-5)"/>
</clipPath>
</defs>
</svg>
